<?xml version="1.0" encoding="UTF-8" standalone="no"?>
<!-- Created with Inkscape (http://www.inkscape.org/) -->
<svg xmlns:svg="http://www.w3.org/2000/svg" xmlns="http://www.w3.org/2000/svg" version="1.0" width="602.36218" height="145.66534" id="svg2033">
  <defs id="defs2035"/>
  <g id="layer1">
    <g id="g2080">
      <rect width="584.64563" height="127.94244" x="8.858243" y="8.8614082" style="fill: rgb(0, 0, 102); fill-rule: evenodd;" id="_71073112"/>
      <path d="M 72.84375,25.5625 C 46.73808,25.5625 25.5625,46.738083 25.5625,72.84375 C 25.5625,98.94871 46.73808,120.09375 72.84375,120.09375 C 98.94978,120.09375 120.09375,98.948713 120.09375,72.84375 C 120.09375,46.73808 98.94978,25.5625 72.84375,25.5625 z M 72.84375,30.28125 C 96.33978,30.28125 115.375,49.350913 115.375,72.84375 C 115.375,96.33977 96.33978,115.375 72.84375,115.375 C 49.35092,115.375 30.281251,96.339773 30.28125,72.84375 C 30.28125,49.35091 49.35092,30.281249 72.84375,30.28125 z M 294.09375,40.8125 C 285.21387,40.8125 280.09376,47.36632 280.09375,54.53125 L 280.09375,59.28125 L 273.65625,59.28125 L 273.65625,68.6875 L 280.09375,68.6875 L 280.09375,103.96875 L 294.78125,103.96875 L 294.78125,68.6875 L 303.65625,68.6875 L 303.65625,59.28125 L 294.78125,59.28125 L 294.78125,54.9375 C 294.78125,52.26124 298.63344,50.968748 301.65625,50.96875 L 303.65625,50.96875 L 303.65625,40.8125 L 294.09375,40.8125 z M 182.40625,41.59375 L 182.40625,103.96875 L 223.84375,103.96875 L 223.84375,91.40625 L 197.8125,91.40625 L 197.8125,41.59375 L 182.40625,41.59375 z M 339.21875,41.65625 L 339.21875,103.90625 L 353.625,103.90625 L 353.625,80 C 353.625,70.19673 358.1894,68.687502 361.9375,68.6875 C 366.35636,68.6875 368.04456,71.062877 368.125,77.34375 L 368.125,103.90625 L 382.71875,103.90625 L 382.71875,73.125 C 382.71875,63.86811 376.68424,57.249998 366.6875,57.25 C 360.60613,57.25 356.3651,59.924938 353.96875,62.4375 L 353.96875,41.65625 L 339.21875,41.65625 z M 312.1875,44.46875 L 312.1875,59.28125 L 306,59.28125 L 306,68.6875 L 312.1875,68.6875 L 312.1875,94.03125 C 312.1875,96.18664 314.36841,103.90625 322.3125,103.90625 C 322.01983,103.90625 335.56249,103.8125 335.5625,103.8125 L 335.5625,93.625 L 330.96875,93.625 C 329.61309,93.625 326.93749,92.928719 326.9375,90.5625 L 326.9375,68.6875 L 335.5,68.6875 L 335.5,59.28125 L 326.9375,59.28125 L 326.9375,44.46875 L 312.1875,44.46875 z M 506.84375,57.03125 C 506.21475,57.033091 505.58307,57.041241 504.96875,57.0625 C 500.04639,57.23258 493.53573,59.02581 490.90625,61.0625 C 488.10739,63.18104 484.88755,65.890768 484.625,71.90625 C 484.39185,77.29136 486.64453,82.103079 495.96875,84.71875 L 504.71875,86.28125 C 506.24875,86.68483 512.78123,87.33146 512.78125,91.09375 C 512.78125,93.34942 510.68795,95.953182 505.90625,95.65625 C 500.92082,95.35047 497.73109,93.754737 497.6875,89.3125 L 483.625,89.3125 C 483.08536,94.50486 485.74447,101.37914 494.96875,104.21875 C 497.43772,104.98198 500.73324,105.82992 504.71875,106 C 508.79072,106.08398 513.00045,105.33191 516.25,104.3125 C 524.75039,101.63943 527.62497,95.273853 527.625,90.15625 C 527.625,82.86093 522.8957,78.976857 518.4375,77.34375 L 502.75,74.03125 C 499.03768,73.05436 499.22058,69.045632 501.5,68 C 503.80953,66.93984 506.43172,66.447129 509.125,67.59375 C 511.63756,68.65922 512.53834,70.756258 512.6875,72.46875 L 526.09375,72.46875 C 526.09375,69.68052 526.59292,64.467481 519.46875,59.875 C 515.90826,57.574817 511.24678,57.018363 506.84375,57.03125 z M 410.03125,57.0625 C 403.75641,57.0625 390.44326,58.608202 389.03125,73.34375 L 402,73.34375 C 403.84677,67.60537 406.31827,67.09375 410.53125,67.09375 C 414.4257,67.09375 416.5625,68.843678 416.5625,71.0625 C 416.5625,73.92549 415.22011,74.348481 413.59375,74.71875 C 409.00835,75.76828 407.2783,75.753961 402.40625,76.90625 C 392.47578,79.26325 386.34375,83.526913 386.34375,91.6875 C 386.34375,101.65093 395.6414,105.57582 402.90625,105.65625 C 412.41648,105.76184 417.81249,100.625 417.8125,100.625 L 418.9375,103.875 L 432.53125,103.875 C 432.53125,103.875 431.15625,99.93396 431.15625,97.6875 L 431.15625,73.90625 C 431.15625,65.34562 426.57829,61.147871 422,59.28125 C 419.71031,58.34901 414.60991,57.0625 410.03125,57.0625 z M 554.3125,57.0625 C 548.03766,57.0625 534.72556,58.608202 533.3125,73.34375 L 546.28125,73.34375 C 548.12412,67.60537 550.60054,67.09375 554.8125,67.09375 C 558.70801,67.09375 560.84378,68.843678 560.84375,71.0625 C 560.84375,73.92549 559.50135,74.348481 557.875,74.71875 C 553.28996,75.76828 551.55954,75.753961 546.6875,76.90625 C 536.75774,79.26325 530.62501,83.526913 530.625,91.6875 C 530.625,101.65093 539.9237,105.57582 547.1875,105.65625 C 556.69774,105.76184 562.09376,100.625 562.09375,100.625 L 563.21875,103.875 L 576.8125,103.875 C 576.8125,103.875 575.40623,99.93396 575.40625,97.6875 L 575.40625,73.90625 C 575.40625,65.34562 570.85959,61.147871 566.28125,59.28125 C 563.99157,58.34901 558.89114,57.0625 554.3125,57.0625 z M 463.75,57.9375 C 460.26445,57.9375 455.08189,59.20386 450.84375,62.75 L 450.6875,62.75 L 450,59.21875 L 436.84375,59.21875 L 436.84375,103.84375 L 451.34375,103.84375 L 451.34375,82.28125 C 451.34375,72.01452 454.01678,68.937501 458.875,68.9375 C 461.62744,68.9375 464.61328,70.770897 465.25,75.40625 L 465.25,103.84375 L 479.9375,103.84375 L 479.9375,73.21875 C 478.75226,59.19611 468.56572,57.937498 463.75,57.9375 z M 227.375,59.34375 L 227.375,90 C 228.56165,104.02264 238.74714,105.25 243.5625,105.25 C 247.0484,105.25 252.23024,104.0149 256.46875,100.46875 L 256.625,100.46875 L 257.3125,103.96875 L 270.46875,103.96875 L 270.46875,59.34375 L 255.96875,59.34375 L 255.96875,80.90625 C 255.96875,91.17298 253.29573,94.250003 248.4375,94.25 C 245.68506,94.25 242.69923,92.417311 242.0625,87.78125 L 242.0625,59.34375 L 227.375,59.34375 z M 96,61.625 C 90.537152,61.639306 85.098466,62.003986 80,62.84375 C 79.10355,62.84375 79.305007,63.866752 78.96875,64.3125 C 77.51245,68.29128 73.818631,71.865773 69.84375,73.15625 C 63.28827,75.62168 56.728299,72.660562 51.40625,69.46875 L 51.3125,69 C 51.42588,68.71689 51.643042,68.236171 52.09375,68.40625 C 55.39894,69.69247 58.53088,71.304873 62.0625,72.03125 L 62.28125,71.9375 C 62.39074,71.65793 62.717058,71.186883 62.4375,70.90625 L 45.96875,63.96875 L 41.65625,62.1875 L 41.09375,63.40625 C 40.75749,63.80027 40.892331,64.599564 40.21875,64.65625 C 38.20332,64.09606 36.285421,63.13493 34.15625,62.96875 C 33.989,63.69512 33.724548,64.429882 33.78125,65.15625 C 38.20684,66.83968 42.55415,68.783231 46.8125,70.96875 C 57.28899,76.51757 67.16243,83.452913 78.3125,87.375 C 84.41762,89.6739 90.956229,91.076282 97.34375,92.8125 L 97.625,92.71875 C 98.74788,91.59552 100.04685,90.41631 101,89.1875 L 100.875,89.1875 C 96.33744,89.41037 91.8822,88.856029 87.90625,87.34375 C 83.81444,85.71737 79.919287,83.460291 76.5,80.4375 C 76.39051,80.26742 76.458817,79.988377 76.625,79.875 C 78.30807,78.97854 80.109439,78.241529 81.90625,77.625 C 88.01031,75.27295 95.225253,75.353451 102.34375,75.40625 C 102.84619,74.73656 103.47043,74.11002 103.75,73.4375 C 97.75543,73.21463 91.574142,73.21112 85.75,73.9375 L 85.46875,73.78125 C 85.46875,73.27491 85.700797,72.644861 86.09375,72.3125 C 92.25521,71.63892 98.861408,71.542857 105.25,71.65625 C 105.69681,71.03936 106.31418,70.454837 106.59375,69.78125 C 100.37631,69.33161 93.781008,69.564183 87.5625,69.84375 L 87.3125,69.6875 C 87.36919,69.18435 87.503008,68.493218 88.0625,68.15625 C 94.56411,67.65346 101.22365,67.735592 107.78125,68.125 C 108.50763,67.73559 108.90381,66.891979 109.40625,66.21875 L 109.28125,66.15625 C 102.66979,65.59605 96.017708,65.476241 89.40625,65.8125 L 89.125,65.65625 C 89.17886,65.04043 89.46242,64.430012 89.96875,64.09375 C 96.86084,63.70079 104.02551,63.899906 110.75,64.40625 C 111.25244,63.84711 111.82,63.23608 112.15625,62.5625 C 106.94635,61.94614 101.46285,61.610694 96,61.625 z M 416.96875,82.59375 L 416.96875,84.9375 C 416.96875,90.33963 416.08362,93.851878 409.40625,95.28125 C 405.73751,96.06786 400.74999,95.426139 400.75,91.25 C 400.75,88.34449 401.92079,86.528369 407.21875,85.0625 C 409.91485,84.31238 412.25331,83.696069 416.96875,82.59375 z M 561.25,82.59375 L 561.25,84.9375 C 561.25,90.33963 560.36591,93.851878 553.6875,95.28125 C 550.01876,96.06786 545.03125,95.426139 545.03125,91.25 C 545.03125,88.34449 546.20173,86.528369 551.5,85.0625 C 554.19575,84.31238 556.5356,83.696069 561.25,82.59375 z " style="fill: rgb(255, 179, 0); fill-rule: nonzero;" id="_70492464"/>
    </g>
  </g>
</svg>